<svg xmlns="http://www.w3.org/2000/svg"><style>:root svg:not(:target){display:none}</style><svg id="arrow-right-hover" viewBox="0 0 32 12" fill="none"><line y1="6" x2="26" y2="6" stroke="black" stroke-width="2"></line><path d="M32 6L25.25 11.1962L25.25 0.803848L32 6Z" fill="black"></path></svg><svg id="arrow-right" viewBox="0 0 32 12" fill="none"><line y1="6" x2="18" y2="6" stroke="black" stroke-width="2"></line><path d="M24 6L17.25 11.1962L17.25 0.803848L24 6Z" fill="black"></path></svg><svg id="footer-logo" viewBox="0 0 129 24"><g clip-path="url(#footer-logo_0)"><path d="M2.1025 22.0513C0.968327 20.3682 0.405312 18.3503 0.5 16.3077V7.79487C0.362652 5.73031 0.890413 3.67661 2.00235 1.94872C3.10407 0.615385 4.80673 0 7.31064 0C9.81455 0 11.4171 0.615385 12.4186 1.74359C13.506 3.17255 14.0409 4.96181 13.921 6.76923V8.82051H9.0133V6.46154C9.05294 5.76385 8.95062 5.06533 8.71283 4.41026C8.58573 4.14583 8.38428 3.9264 8.1344 3.78018C7.88452 3.63395 7.59763 3.56763 7.31064 3.58974C6.60955 3.58974 6.10876 3.79487 5.90845 4.30769C5.68187 5.03643 5.58022 5.79984 5.60798 6.5641V17.5385C5.55509 18.2799 5.69324 19.0227 6.00861 19.6923C6.20892 20.2051 6.7097 20.4103 7.4108 20.4103C8.11189 20.4103 8.51252 20.2051 8.71283 19.6923C8.94055 18.9992 9.04239 18.2692 9.0133 17.5385V15.0769H13.921V17.1282C14.0228 18.9651 13.4911 20.7803 12.4186 22.2564C11.4171 23.4872 9.7144 24.1026 7.31064 24.1026C4.90689 24 3.10407 23.3846 2.1025 22.0513Z" ></path><path d="M19.8302 0.307617H25.5391L29.7457 23.6922H25.1385L24.3372 18.7692H21.032L20.2308 23.6922H15.5234L19.8302 0.307617ZM23.9366 15.6922L22.7347 6.56403L21.5328 15.6922H23.9366Z"></path><path d="M33.2511 4.20505H29.8458V0.307617H41.7645V4.10249H38.3591V23.6922H33.2511V4.20505Z"></path><path d="M50.8787 0.307617H59.6925V2.76916H53.9836V10.4615H58.5908V12.8204H53.9836V21.4358H59.6925V23.7948H50.7786V0.307617H50.8787Z"></path><path d="M62.2965 0.307617H64.5L71.0101 15.7948V0.307617H73.6142V23.6922H71.6111L65.0007 7.69223V23.6922H62.2965V0.307617Z"></path><path d="M76.6189 0.307617H85.4327V2.76916H79.7237V10.4615H84.3309V12.8204H79.7237V21.4358H85.4327V23.7948H76.6189V0.307617Z"></path><path d="M88.0367 0.3076H92.6439C94.4563 0.179397 96.2574 0.685711 97.7519 1.7435C98.8536 2.66657 99.3544 4.3076 99.3544 6.46145C99.3544 9.4358 98.453 11.282 96.55 11.8973L99.755 23.5897H96.6501L93.6454 12.6153H91.1415V23.5897H87.9365V0.3076H88.0367ZM92.4436 10.3589C93.4761 10.446 94.5053 10.1553 95.3481 9.53837C95.949 9.02555 96.2495 7.99991 96.2495 6.46145C96.2773 5.69719 96.1756 4.93378 95.949 4.20504C95.7236 3.68211 95.3365 3.24964 94.8473 2.97427C94.1575 2.65236 93.4002 2.51137 92.6439 2.56401H91.2417V10.2563H92.4436V10.3589Z"></path><path d="M103.361 21.9487C102.32 20.1554 101.831 18.0821 101.958 15.9999V8.20507C101.934 6.71875 102.102 5.23567 102.459 3.79481C102.794 2.71811 103.462 1.78218 104.362 1.12815C105.481 0.450275 106.771 0.128917 108.068 0.20507C110.171 0.20507 111.674 0.71789 112.575 1.8461C113.612 3.33582 114.108 5.14977 113.977 6.9743V7.79481H110.973V7.07687C110.977 6.21789 110.91 5.36008 110.772 4.51276C110.688 3.97732 110.4 3.49792 109.971 3.17943C109.408 2.80104 108.74 2.62099 108.068 2.66661C107.35 2.61949 106.639 2.83785 106.065 3.28199C105.829 3.48529 105.637 3.73569 105.499 4.01787C105.361 4.30004 105.281 4.60805 105.264 4.92302C105.132 5.83993 105.065 6.76543 105.063 7.69225V16.4102C104.99 17.7384 105.194 19.0674 105.664 20.3076C106.065 21.1281 106.866 21.4358 108.068 21.4358C108.543 21.4964 109.024 21.4119 109.452 21.1929C109.879 20.9739 110.234 20.6302 110.472 20.2051C111.001 18.9081 111.241 17.5064 111.173 16.1025V14.4615H108.268V12.1025H114.077V23.6923H112.074L111.774 21.0256C111.511 21.9193 110.964 22.6975 110.22 23.2364C109.476 23.7753 108.578 24.0441 107.667 23.9999C106.84 24.0498 106.013 23.8885 105.261 23.5304C104.51 23.1724 103.857 22.6289 103.361 21.9487Z"></path><path d="M120.488 15.4871L115.58 0.410156H118.585L122.09 11.6922L125.495 0.410156H128.5L123.592 15.4871V23.6922H120.588V15.4871H120.488Z"></path></g><defs><clipPath id="footer-logo_0"><rect width="128" height="24" fill="white" transform="translate(0.5)"></rect></clipPath></defs></svg><svg id="gifts" viewBox="0 0 78 80" fill="none"><path d="M64.0156 34.7127H14.031C12.2766 34.7127 10.8494 33.2951 10.8494 31.5524V22.0842C10.8494 20.3415 12.2766 18.9233 14.031 18.9233H64.0149C65.7687 18.9233 67.1953 20.3415 67.1953 22.0842V31.553C67.1959 33.2951 65.7693 34.7127 64.0156 34.7127ZM14.031 21.3455C13.6276 21.3455 13.2869 21.684 13.2869 22.0842V31.553C13.2869 31.9599 13.6208 32.2912 14.031 32.2912H64.0149C64.4244 32.2912 64.7578 31.9599 64.7578 31.553V22.0842C64.7578 21.6834 64.4171 21.3455 64.0149 21.3455H14.031Z" fill="white"></path><path d="M57.0447 67.1488H20.999C17.6218 67.1488 14.8741 64.4191 14.8741 61.0626V33.5016C14.8741 32.8331 15.4201 32.2905 16.0929 32.2905C16.7656 32.2905 17.3116 32.8331 17.3116 33.5016V61.0626C17.3116 63.0833 18.9661 64.7267 20.999 64.7267H57.0447C59.077 64.7267 60.7308 63.0833 60.7308 61.0626V33.5016C60.7308 32.8331 61.2768 32.2905 61.9496 32.2905C62.6223 32.2905 63.1683 32.8331 63.1683 33.5016V61.0626C63.1683 64.4191 60.4213 67.1488 57.0447 67.1488Z" fill="white"></path><path d="M39.0225 67.1488C38.3498 67.1488 37.8038 66.6069 37.8038 65.9378V33.5016C37.8038 32.8331 38.3498 32.2905 39.0225 32.2905C39.6953 32.2905 40.2413 32.8331 40.2413 33.5016V65.9372C40.2413 66.6069 39.6959 67.1488 39.0225 67.1488Z" fill="white"></path><path d="M23.8113 21.3414C19.9966 19.2874 18.5731 14.5327 20.6383 10.7415C22.7022 6.95201 27.4864 5.53687 31.303 7.58721C37.117 10.7166 40.2565 19.4472 40.3869 19.8172L38.0877 20.6208C38.0585 20.5384 35.1256 12.3994 30.1433 9.71749C27.5078 8.30175 24.2062 9.27908 22.7821 11.8944C21.3567 14.5121 22.339 17.7941 24.9734 19.2117L23.8113 21.3414Z" fill="white"></path><path d="M54.2313 21.3413L53.071 19.2111C54.3477 18.5238 55.2782 17.3848 55.6926 16.0035C56.1063 14.6217 55.9534 13.1624 55.2617 11.895C54.5719 10.6264 53.4263 9.70233 52.0363 9.29117C50.6457 8.88001 49.1783 9.0314 47.9023 9.71747C42.9201 12.3988 39.9871 20.5378 39.9579 20.6202L37.6587 19.8166C37.7891 19.4466 40.928 10.716 46.7421 7.58719C48.5897 6.5929 50.7182 6.3737 52.7316 6.96955C54.7468 7.56479 56.4061 8.90484 57.4061 10.7414C58.4073 12.5774 58.6285 14.6913 58.0289 16.6939C57.4287 18.6958 56.0801 20.3458 54.2313 21.3413Z" fill="white"></path><path d="M61.9496 50.9314H16.0929C15.4201 50.9314 14.8741 50.3889 14.8741 49.7204C14.8741 49.0518 15.4201 48.5093 16.0929 48.5093H61.9496C62.6223 48.5093 63.1683 49.0518 63.1683 49.7204C63.1683 50.3889 62.6229 50.9314 61.9496 50.9314Z" fill="white"></path></svg><svg id="html-academy" viewBox="0 0 27 34" fill="none"><path d="M13.6426 0.0157537L13.5 0L0 1.40733V26.0129L13.5 34L27 26.0129V1.40733L13.6426 0.0157537ZM25.2344 25.0151L13.5 31.9573L1.76561 25.0151V14.9293L13.4507 21.8451L13.4701 23.0984L5.45351 18.3548L5.44295 19.5801L13.4894 24.3885L13.5088 25.675L5.46408 20.9174L5.45351 22.1427L13.5 26.9511L21.6239 22.1182V20.8929V16.909L25.2432 14.7595L25.2344 25.0151ZM25.2344 13.4519L22.0147 15.3319L20.5325 16.2071L13.4666 12.0201L13.456 13.2454L19.4957 16.818L19.4429 16.8495L19.3126 16.9247L18.4536 17.4166L13.4666 14.4689L13.456 15.6942L17.3921 18.0222L16.4591 18.6314L16.438 18.6436L13.4666 16.902L13.456 18.1273L15.4029 19.2615L13.4155 20.4483L1.7973 13.5762L13.4349 6.61831L25.2344 13.4519ZM25.2344 12.2266L13.4401 5.31075L1.76561 12.2196V2.9897L13.5 1.76442L25.2344 2.9897V12.2266Z" fill="#666666"></path></svg><svg id="telegram" viewBox="0 0 28 22" fill="none"><path fill-rule="evenodd" clip-rule="evenodd" d="M23.4608 3.15291C23.6393 3.30222 23.7255 3.5349 23.6872 3.76448L21.0611 19.5214C21.0244 19.7411 20.8789 19.9273 20.6745 20.0159C20.47 20.1045 20.2346 20.0833 20.0493 19.9597L12.1708 14.7074C12.0177 14.6054 11.9145 14.4437 11.8862 14.2619C11.858 14.08 11.9074 13.8947 12.0223 13.751L14.633 10.4877L10.273 13.3944C10.077 13.525 9.82597 13.5407 9.61524 13.4353L4.36293 10.8092C4.12769 10.6915 3.98535 10.4449 4.0012 10.1824C4.01705 9.91983 4.18804 9.6921 4.43573 9.60364L22.8188 3.03826C23.038 2.95998 23.2822 3.00359 23.4608 3.15291ZM6.32626 10.3228L9.86168 12.0905L17.4231 7.0495C17.6925 6.86994 18.0525 6.91349 18.2712 7.1521C18.49 7.3907 18.5022 7.75314 18.3 8.00591L13.495 14.0121L19.9328 18.3039L22.2083 4.65058L6.32626 10.3228Z" fill="#666666"></path></svg><svg id="vkontakte" viewBox="0 0 28 22" fill="none"><path d="M1 5.33876C1 4.48373 1.5151 4.02268 2.54531 3.95562L6.51515 3.98077C6.78158 3.98077 6.95921 4.10651 7.04802 4.35799C7.45655 5.61538 7.91392 6.70094 8.42014 7.61465C8.92637 8.52835 9.58801 9.58038 10.4051 10.7707C10.4761 10.9216 10.5916 10.997 10.7514 10.997C10.8758 10.997 10.9735 10.9384 11.0445 10.821L11.1244 10.5444L11.1511 6.19379C11.1511 5.89201 11.0756 5.69083 10.9246 5.59024C10.7736 5.48965 10.4939 5.4142 10.0853 5.36391C9.76563 5.31361 9.60577 5.12919 9.60577 4.81065C9.60577 4.74359 9.61465 4.69329 9.63241 4.65976C10.0054 3.57002 11.0711 3.02515 12.8296 3.02515L14.3216 3C14.9966 3 15.5561 3.15927 16.0001 3.47781C16.4442 3.79635 16.6662 4.29931 16.6662 4.98669V10.6953C16.7906 10.7791 16.906 10.821 17.0126 10.821C17.279 10.821 17.5099 10.6701 17.7053 10.3683C19.6592 7.78649 20.716 6.05966 20.8759 5.18787C20.8759 5.1711 20.8936 5.12919 20.9291 5.06213C21.0535 4.81065 21.2577 4.5927 21.5419 4.40828C21.8261 4.22387 22.0748 4.09813 22.288 4.03107C22.359 3.99753 22.4389 3.98077 22.5277 3.98077H26.6574L26.9239 4.00592C27.2791 4.00592 27.5544 4.16519 27.7498 4.48373C27.8209 4.58432 27.8697 4.69329 27.8964 4.81065C27.923 4.92801 27.9408 5.04536 27.9496 5.16272C27.9585 5.28008 27.963 5.34714 27.963 5.36391V5.53994C27.8386 6.22732 27.5233 6.9608 27.0171 7.74038C26.5109 8.51997 25.867 9.36243 25.0855 10.2678C24.304 11.1731 23.8155 11.7682 23.6201 12.0533C23.4603 12.2544 23.3803 12.4389 23.3803 12.6065C23.3803 12.7406 23.4514 12.8915 23.5935 13.0592L27.4834 17.6864C27.6965 17.9546 27.8031 18.248 27.8031 18.5666C27.8031 18.9522 27.6432 19.2707 27.3235 19.5222C27.0038 19.7737 26.6219 19.9162 26.1779 19.9497L25.7249 19.9749H21.6752C21.6574 19.9749 21.6219 19.979 21.5686 19.9874C21.5153 19.9958 21.4798 20 21.462 20C21.0712 20 20.7071 19.8407 20.3696 19.5222C20.2453 19.3881 19.4105 18.3989 17.8652 16.5547C17.7764 16.4374 17.652 16.3284 17.4922 16.2278C17.4211 16.4961 17.3279 16.8817 17.2124 17.3846C17.097 17.8876 17.0126 18.248 16.9593 18.466L16.8794 18.8935C16.7018 19.4803 16.3287 19.8323 15.7604 19.9497L15.3874 19.9749H12.7763C11.3021 19.9749 9.83224 19.3378 8.36686 18.0636C6.90148 16.7894 5.58264 15.1423 4.41034 13.122C3.23803 11.1018 2.14566 8.75049 1.13322 6.06805C1.04441 5.8501 1 5.607 1 5.33876ZM17.0126 11.8521C16.6396 11.8521 16.3021 11.7557 16.0001 11.5629C15.6982 11.3701 15.5472 11.106 15.5472 10.7707V4.98669C15.5472 4.65138 15.4584 4.41248 15.2808 4.26997C15.1032 4.12747 14.7923 4.05621 14.3483 4.05621L12.8296 4.10651C12.0658 4.10651 11.4886 4.23225 11.0978 4.48373C11.8793 4.8358 12.2701 5.40582 12.2701 6.19379V10.6198C12.2346 11.039 12.0569 11.3868 11.7372 11.6635C11.4175 11.9401 11.0623 12.0784 10.6715 12.0784C10.1386 12.0784 9.7301 11.8353 9.44591 11.3491C8.06046 9.37081 7.03025 7.4931 6.35529 5.71598L6.1155 5.06213L2.57195 5.03698C2.34104 5.03698 2.21227 5.04956 2.18562 5.0747C2.15898 5.09985 2.14566 5.1711 2.14566 5.28846C2.14566 5.43935 2.16342 5.59862 2.19895 5.76627L2.75845 7.17456C4.25048 10.8126 5.87127 13.6795 7.62085 15.7751C9.37042 17.8708 11.0889 18.9186 12.7763 18.9186H15.4406C15.5472 18.9186 15.6271 18.8893 15.6804 18.8306C15.7337 18.7719 15.7781 18.6588 15.8136 18.4911L15.8669 18.2396L16.3732 16.0266C16.5152 15.7249 16.6396 15.5237 16.7462 15.4231C16.9415 15.2387 17.1725 15.1465 17.4389 15.1465C17.8652 15.1465 18.3003 15.3895 18.7444 15.8757L21.0091 18.5917C21.1512 18.8097 21.3022 18.9186 21.462 18.9186H25.8581C26.391 18.9186 26.6574 18.7929 26.6574 18.5414C26.6574 18.4576 26.6308 18.3738 26.5775 18.2899L22.7142 13.7382C22.4123 13.3861 22.2613 13.0089 22.2613 12.6065C22.2613 12.2041 22.4034 11.8185 22.6876 11.4497C22.9185 11.1144 23.367 10.557 24.0331 9.77737C24.6992 8.99778 25.2809 8.26849 25.7782 7.5895C26.2756 6.9105 26.6042 6.29438 26.764 5.74112L26.8439 5.4142C26.8262 5.38067 26.8173 5.32618 26.8173 5.25074C26.8173 5.1753 26.8084 5.11243 26.7907 5.06213H22.6077C22.3412 5.16272 22.1281 5.31361 21.9682 5.51479L21.8084 5.9926C21.3643 7.14941 20.2009 8.93491 18.3181 11.3491C17.9451 11.6844 17.5099 11.8521 17.0126 11.8521Z" fill="#666666"></path></svg><svg id="youtube" viewBox="0 0 28 22" fill="none"><path d="M17.8509 10.7927L12.6145 7.30184C12.5159 7.23691 12.4016 7.19985 12.2837 7.19459C12.1657 7.18934 12.0486 7.21608 11.9446 7.27198C11.8406 7.32789 11.7537 7.41087 11.693 7.51215C11.6324 7.61343 11.6002 7.72924 11.6 7.84729V14.8291C11.6001 14.9481 11.6327 15.0648 11.6942 15.1667C11.7557 15.2686 11.8438 15.3518 11.9491 15.4073C12.0524 15.4631 12.1691 15.4895 12.2864 15.4837C12.4037 15.478 12.5172 15.4402 12.6145 15.3746L17.8509 11.8837C17.9409 11.824 18.0148 11.7429 18.0658 11.6477C18.1169 11.5526 18.1436 11.4462 18.1436 11.3382C18.1436 11.2302 18.1169 11.1239 18.0658 11.0287C18.0148 10.9335 17.9409 10.8525 17.8509 10.7927ZM12.9091 13.6073V9.06911L16.3127 11.3382L12.9091 13.6073ZM25.3891 5.04366C25.2942 4.67547 25.1131 4.33511 24.8609 4.05061C24.6086 3.76611 24.2924 3.54561 23.9382 3.40729C20.2182 1.9782 14.2509 2.00002 14 2.00002C13.7491 2.00002 7.78182 1.9782 4.06182 3.40729C3.70764 3.54561 3.3914 3.76611 3.13914 4.05061C2.88689 4.33511 2.70584 4.67547 2.61091 5.04366C2.32727 6.11275 2 8.07638 2 11.3382C2 14.6 2.32727 16.5637 2.61091 17.6327C2.70584 18.0009 2.88689 18.3413 3.13914 18.6258C3.3914 18.9103 3.70764 19.1308 4.06182 19.2691C7.78182 20.6982 13.7491 20.6764 14 20.6764H14.0764C14.8291 20.6764 20.3927 20.6327 23.9382 19.2691C24.2924 19.1308 24.6086 18.9103 24.8609 18.6258C25.1131 18.3413 25.2942 18.0009 25.3891 17.6327C25.6727 16.5637 26 14.6 26 11.3382C26 8.07638 25.6727 6.11275 25.3891 5.04366ZM24.1236 17.3055C24.0807 17.472 23.999 17.6259 23.8853 17.7548C23.7715 17.8838 23.6289 17.984 23.4691 18.0473C19.9782 19.3891 14.0655 19.3673 14 19.3673C13.9345 19.3673 8.02182 19.3891 4.53091 18.0473C4.37107 17.984 4.22846 17.8838 4.11471 17.7548C4.00096 17.6259 3.91929 17.472 3.87636 17.3055C3.61455 16.3018 3.30909 14.4582 3.30909 11.3382C3.30909 8.2182 3.61455 6.37457 3.87636 5.37093C3.91929 5.20445 4.00096 5.05047 4.11471 4.92156C4.22846 4.79264 4.37107 4.69243 4.53091 4.62911C8.02182 3.28729 13.9345 3.30911 14 3.30911C14.0655 3.30911 19.9782 3.28729 23.4691 4.62911C23.6289 4.69243 23.7715 4.79264 23.8853 4.92156C23.999 5.05047 24.0807 5.20445 24.1236 5.37093C24.3855 6.37457 24.6909 8.2182 24.6909 11.3382C24.6909 14.4582 24.3855 16.3018 24.1236 17.3055Z" fill="#666666"></path></svg></svg>