<svg width="119" height="33" viewBox="0 0 119 33" fill="none" xmlns="http://www.w3.org/2000/svg">
<g clip-path="url(#clip0_2403_439)">
<path d="M2.66421 27.6611C1.63404 26.1469 1.14146 24.3356 1.26421 22.5129V15.0735C1.13426 13.2374 1.61939 11.4102 2.64421 9.87576C3.57088 8.69206 5.15421 8.10351 7.39421 8.11012C9.63421 8.11674 11.1509 8.63585 11.9442 9.66745C12.9115 10.9458 13.3836 12.5265 13.2742 14.1212V15.867H9.13421V13.9724C9.12863 13.4739 9.08517 12.9766 9.00421 12.4845C8.95415 12.1283 8.78928 11.7978 8.53421 11.5422C8.37675 11.4083 8.19394 11.3068 7.99648 11.2438C7.79902 11.1808 7.59086 11.1574 7.38421 11.1752C7.08741 11.1313 6.78418 11.1791 6.51578 11.3122C6.24738 11.4453 6.02685 11.6573 5.88421 11.9191C5.62127 12.6157 5.50555 13.3585 5.54421 14.1014V23.5446C5.49859 24.2923 5.63224 25.0402 5.93421 25.7268C6.07849 25.9745 6.29259 26.175 6.55019 26.3037C6.80779 26.4323 7.09767 26.4835 7.38421 26.4509C7.66576 26.4904 7.95271 26.4407 8.20411 26.3089C8.4555 26.1771 8.65852 25.9699 8.78421 25.7169C9.0261 25.019 9.13132 24.2816 9.0942 23.5446V21.5607H13.2342V23.2767C13.3561 24.895 12.9226 26.5066 12.0042 27.8495C11.1242 28.9407 9.60421 29.4763 7.44421 29.4763C5.28421 29.4763 3.59421 28.8811 2.66421 27.6611Z" fill="#111111"/>
<path d="M111.699 21.8583L107.169 8.39778H109.889L113.099 18.4361L116.259 8.39778H119.009L114.509 21.8583V29.1986H111.709L111.699 21.8583Z" fill="#444444"/>
<path d="M18.9149 8.39778H23.6549L27.6549 29.2283H23.7149L23.0049 24.6258H19.6849L18.8849 29.1986H14.8849L18.9149 8.39778ZM22.5649 22.0071L21.3049 13.6352L20.0549 22.0071H22.5649Z" fill="#111111"/>
<path d="M30.7255 11.5323H27.4855V8.39778H38.2055V11.5323H35.0055V29.1986H30.7155L30.7255 11.5323Z" fill="#111111"/>
<path d="M46.6165 8.39778H54.7465V10.5602H49.5464V17.4343H53.7664V19.4876H49.5464V27.1155H54.7964V29.1986H46.6165V8.39778Z" fill="#444444"/>
<path d="M57.157 8.39778H59.157L65.157 22.2154V8.39778H67.597V29.2283H65.727L59.727 15.0239V29.1986H57.247L57.157 8.39778Z" fill="#444444"/>
<path d="M70.8276 8.39778H78.9476V10.5602H73.7476V17.4343H78.0076V19.4876H73.7876V27.1155H79.0076V29.1986H70.8276V8.39778Z" fill="#444444"/>
<path d="M81.3582 8.39778H85.5782C87.2412 8.26504 88.8973 8.72586 90.2482 9.69721C91.2482 10.5602 91.7381 11.9687 91.7381 13.9228C91.7381 16.568 90.8748 18.1848 89.1481 18.7734L92.1481 29.1986H89.3082L86.5582 19.438H84.2881V29.1986H81.3582V8.39778ZM85.3582 17.3251C86.3215 17.4176 87.2849 17.1486 88.0582 16.5713C88.3724 16.2024 88.6073 15.7736 88.7483 15.3113C88.8893 14.849 88.9335 14.363 88.8781 13.8832C88.8982 13.2102 88.8001 12.5389 88.5882 11.8993C88.5022 11.6635 88.3694 11.4471 88.1976 11.2631C88.0258 11.0791 87.8186 10.9312 87.5882 10.828C86.939 10.5638 86.2389 10.4453 85.5381 10.4808H84.2482V17.3648L85.3582 17.3251Z" fill="#444444"/>
<path d="M95.6788 27.6611C94.7229 26.0607 94.28 24.21 94.4088 22.3542V15.4107C94.3743 14.0708 94.5429 12.7333 94.9088 11.443C95.1976 10.473 95.8114 9.62966 96.6488 9.05246C97.6598 8.44812 98.8301 8.15792 100.009 8.21924C100.771 8.14731 101.54 8.24142 102.262 8.49499C102.984 8.74856 103.642 9.15548 104.189 9.68729C105.148 11.0205 105.602 12.6472 105.469 14.2799V15.0536H102.719V14.4089C102.738 13.6377 102.677 12.8667 102.539 12.1076C102.448 11.6211 102.177 11.186 101.779 10.8875C101.26 10.5836 100.66 10.4419 100.059 10.4808C99.4056 10.4254 98.7563 10.6247 98.2488 11.0363C97.8341 11.4267 97.563 11.9435 97.4788 12.5044C97.3521 13.3215 97.2953 14.1477 97.3088 14.9743V22.7014C97.2294 23.8756 97.4316 25.0518 97.8988 26.1335C98.1702 26.4662 98.5146 26.7329 98.9058 26.9133C99.2969 27.0937 99.7245 27.183 100.156 27.1744C100.587 27.1658 101.011 27.0595 101.394 26.8636C101.778 26.6677 102.111 26.3874 102.369 26.0442C102.851 24.9001 103.059 23.661 102.979 22.4237V20.9556H100.319V18.9023H105.619V29.1986H103.809L103.519 26.808C103.29 27.6022 102.796 28.2962 102.119 28.777C101.442 29.2578 100.621 29.4973 99.7888 29.4565C99.0067 29.5249 98.2199 29.3961 97.5014 29.0823C96.7829 28.7684 96.1559 28.2795 95.6788 27.6611V27.6611Z" fill="#444444"/>
</g>
<defs>
<clipPath id="clip0_2403_439">
<rect width="202" height="59" fill="white" transform="translate(-83 -14)"/>
</clipPath>
</defs>
</svg>
