<svg xmlns="http://www.w3.org/2000/svg">

 <style> :root svg:not(:target) { display: none } </style>

  <svg id="vkontakte" width="28" height="22" viewBox="0 0 28 22" fill="none" xmlns="http://www.w3.org/2000/svg">
                <path d="M1 5.33876C1 4.48373 1.5151 4.02268 2.54531 3.95562L6.51515 3.98077C6.78158 3.98077 6.95921 4.10651 7.04802 4.35799C7.45655 5.61538 7.91392 6.70094 8.42014 7.61465C8.92637 8.52835 9.58801 9.58038 10.4051 10.7707C10.4761 10.9216 10.5916 10.997 10.7514 10.997C10.8758 10.997 10.9735 10.9384 11.0445 10.821L11.1244 10.5444L11.1511 6.19379C11.1511 5.89201 11.0756 5.69083 10.9246 5.59024C10.7736 5.48965 10.4939 5.4142 10.0853 5.36391C9.76563 5.31361 9.60577 5.12919 9.60577 4.81065C9.60577 4.74359 9.61465 4.69329 9.63241 4.65976C10.0054 3.57002 11.0711 3.02515 12.8296 3.02515L14.3216 3C14.9966 3 15.5561 3.15927 16.0001 3.47781C16.4442 3.79635 16.6662 4.29931 16.6662 4.98669V10.6953C16.7906 10.7791 16.906 10.821 17.0126 10.821C17.279 10.821 17.5099 10.6701 17.7053 10.3683C19.6592 7.78649 20.716 6.05966 20.8759 5.18787C20.8759 5.1711 20.8936 5.12919 20.9291 5.06213C21.0535 4.81065 21.2577 4.5927 21.5419 4.40828C21.8261 4.22387 22.0748 4.09813 22.288 4.03107C22.359 3.99753 22.4389 3.98077 22.5277 3.98077H26.6574L26.9239 4.00592C27.2791 4.00592 27.5544 4.16519 27.7498 4.48373C27.8209 4.58432 27.8697 4.69329 27.8964 4.81065C27.923 4.92801 27.9408 5.04536 27.9496 5.16272C27.9585 5.28008 27.963 5.34714 27.963 5.36391V5.53994C27.8386 6.22732 27.5233 6.9608 27.0171 7.74038C26.5109 8.51997 25.867 9.36243 25.0855 10.2678C24.304 11.1731 23.8155 11.7682 23.6201 12.0533C23.4603 12.2544 23.3803 12.4389 23.3803 12.6065C23.3803 12.7406 23.4514 12.8915 23.5935 13.0592L27.4834 17.6864C27.6965 17.9546 27.8031 18.248 27.8031 18.5666C27.8031 18.9522 27.6432 19.2707 27.3235 19.5222C27.0038 19.7737 26.6219 19.9162 26.1779 19.9497L25.7249 19.9749H21.6752C21.6574 19.9749 21.6219 19.979 21.5686 19.9874C21.5153 19.9958 21.4798 20 21.462 20C21.0712 20 20.7071 19.8407 20.3696 19.5222C20.2453 19.3881 19.4105 18.3989 17.8652 16.5547C17.7764 16.4374 17.652 16.3284 17.4922 16.2278C17.4211 16.4961 17.3279 16.8817 17.2124 17.3846C17.097 17.8876 17.0126 18.248 16.9593 18.466L16.8794 18.8935C16.7018 19.4803 16.3287 19.8323 15.7604 19.9497L15.3874 19.9749H12.7763C11.3021 19.9749 9.83224 19.3378 8.36686 18.0636C6.90148 16.7894 5.58264 15.1423 4.41034 13.122C3.23803 11.1018 2.14566 8.75049 1.13322 6.06805C1.04441 5.8501 1 5.607 1 5.33876ZM17.0126 11.8521C16.6396 11.8521 16.3021 11.7557 16.0001 11.5629C15.6982 11.3701 15.5472 11.106 15.5472 10.7707V4.98669C15.5472 4.65138 15.4584 4.41248 15.2808 4.26997C15.1032 4.12747 14.7923 4.05621 14.3483 4.05621L12.8296 4.10651C12.0658 4.10651 11.4886 4.23225 11.0978 4.48373C11.8793 4.8358 12.2701 5.40582 12.2701 6.19379V10.6198C12.2346 11.039 12.0569 11.3868 11.7372 11.6635C11.4175 11.9401 11.0623 12.0784 10.6715 12.0784C10.1386 12.0784 9.7301 11.8353 9.44591 11.3491C8.06046 9.37081 7.03025 7.4931 6.35529 5.71598L6.1155 5.06213L2.57195 5.03698C2.34104 5.03698 2.21227 5.04956 2.18562 5.0747C2.15898 5.09985 2.14566 5.1711 2.14566 5.28846C2.14566 5.43935 2.16342 5.59862 2.19895 5.76627L2.75845 7.17456C4.25048 10.8126 5.87127 13.6795 7.62085 15.7751C9.37042 17.8708 11.0889 18.9186 12.7763 18.9186H15.4406C15.5472 18.9186 15.6271 18.8893 15.6804 18.8306C15.7337 18.7719 15.7781 18.6588 15.8136 18.4911L15.8669 18.2396L16.3732 16.0266C16.5152 15.7249 16.6396 15.5237 16.7462 15.4231C16.9415 15.2387 17.1725 15.1465 17.4389 15.1465C17.8652 15.1465 18.3003 15.3895 18.7444 15.8757L21.0091 18.5917C21.1512 18.8097 21.3022 18.9186 21.462 18.9186H25.8581C26.391 18.9186 26.6574 18.7929 26.6574 18.5414C26.6574 18.4576 26.6308 18.3738 26.5775 18.2899L22.7142 13.7382C22.4123 13.3861 22.2613 13.0089 22.2613 12.6065C22.2613 12.2041 22.4034 11.8185 22.6876 11.4497C22.9185 11.1144 23.367 10.557 24.0331 9.77737C24.6992 8.99778 25.2809 8.26849 25.7782 7.5895C26.2756 6.9105 26.6042 6.29438 26.764 5.74112L26.8439 5.4142C26.8262 5.38067 26.8173 5.32618 26.8173 5.25074C26.8173 5.1753 26.8084 5.11243 26.7907 5.06213H22.6077C22.3412 5.16272 22.1281 5.31361 21.9682 5.51479L21.8084 5.9926C21.3643 7.14941 20.2009 8.93491 18.3181 11.3491C17.9451 11.6844 17.5099 11.8521 17.0126 11.8521Z" fill="#666666"/>
                </svg>

  <svg id="youtube" width="28" height="22" viewBox="0 0 28 22" fill="none" xmlns="http://www.w3.org/2000/svg">
    <path d="M17.8509 10.7927L12.6145 7.30184C12.5159 7.23691 12.4016 7.19985 12.2837 7.19459C12.1657 7.18934 12.0486 7.21608 11.9446 7.27198C11.8406 7.32789 11.7537 7.41087 11.693 7.51215C11.6324 7.61343 11.6002 7.72924 11.6 7.84729V14.8291C11.6001 14.9481 11.6327 15.0648 11.6942 15.1667C11.7557 15.2686 11.8438 15.3518 11.9491 15.4073C12.0524 15.4631 12.1691 15.4895 12.2864 15.4837C12.4037 15.478 12.5172 15.4402 12.6145 15.3746L17.8509 11.8837C17.9409 11.824 18.0148 11.7429 18.0658 11.6477C18.1169 11.5526 18.1436 11.4462 18.1436 11.3382C18.1436 11.2302 18.1169 11.1239 18.0658 11.0287C18.0148 10.9335 17.9409 10.8525 17.8509 10.7927ZM12.9091 13.6073V9.06911L16.3127 11.3382L12.9091 13.6073ZM25.3891 5.04366C25.2942 4.67547 25.1131 4.33511 24.8609 4.05061C24.6086 3.76611 24.2924 3.54561 23.9382 3.40729C20.2182 1.9782 14.2509 2.00002 14 2.00002C13.7491 2.00002 7.78182 1.9782 4.06182 3.40729C3.70764 3.54561 3.3914 3.76611 3.13914 4.05061C2.88689 4.33511 2.70584 4.67547 2.61091 5.04366C2.32727 6.11275 2 8.07638 2 11.3382C2 14.6 2.32727 16.5637 2.61091 17.6327C2.70584 18.0009 2.88689 18.3413 3.13914 18.6258C3.3914 18.9103 3.70764 19.1308 4.06182 19.2691C7.78182 20.6982 13.7491 20.6764 14 20.6764H14.0764C14.8291 20.6764 20.3927 20.6327 23.9382 19.2691C24.2924 19.1308 24.6086 18.9103 24.8609 18.6258C25.1131 18.3413 25.2942 18.0009 25.3891 17.6327C25.6727 16.5637 26 14.6 26 11.3382C26 8.07638 25.6727 6.11275 25.3891 5.04366ZM24.1236 17.3055C24.0807 17.472 23.999 17.6259 23.8853 17.7548C23.7715 17.8838 23.6289 17.984 23.4691 18.0473C19.9782 19.3891 14.0655 19.3673 14 19.3673C13.9345 19.3673 8.02182 19.3891 4.53091 18.0473C4.37107 17.984 4.22846 17.8838 4.11471 17.7548C4.00096 17.6259 3.91929 17.472 3.87636 17.3055C3.61455 16.3018 3.30909 14.4582 3.30909 11.3382C3.30909 8.2182 3.61455 6.37457 3.87636 5.37093C3.91929 5.20445 4.00096 5.05047 4.11471 4.92156C4.22846 4.79264 4.37107 4.69243 4.53091 4.62911C8.02182 3.28729 13.9345 3.30911 14 3.30911C14.0655 3.30911 19.9782 3.28729 23.4691 4.62911C23.6289 4.69243 23.7715 4.79264 23.8853 4.92156C23.999 5.05047 24.0807 5.20445 24.1236 5.37093C24.3855 6.37457 24.6909 8.2182 24.6909 11.3382C24.6909 14.4582 24.3855 16.3018 24.1236 17.3055Z" fill="#666666"/>
  </svg>

  <svg id="telegram" width="28" height="22" viewBox="0 0 28 22" fill="none" xmlns="http://www.w3.org/2000/svg">
    <path fill-rule="evenodd" clip-rule="evenodd" d="M23.4608 3.15291C23.6393 3.30222 23.7255 3.5349 23.6872 3.76448L21.0611 19.5214C21.0244 19.7411 20.8789 19.9273 20.6745 20.0159C20.47 20.1045 20.2346 20.0833 20.0493 19.9597L12.1708 14.7074C12.0177 14.6054 11.9145 14.4437 11.8862 14.2619C11.858 14.08 11.9074 13.8947 12.0223 13.751L14.633 10.4877L10.273 13.3944C10.077 13.525 9.82597 13.5407 9.61524 13.4353L4.36293 10.8092C4.12769 10.6915 3.98535 10.4449 4.0012 10.1824C4.01705 9.91983 4.18804 9.6921 4.43573 9.60364L22.8188 3.03826C23.038 2.95998 23.2822 3.00359 23.4608 3.15291ZM6.32626 10.3228L9.86168 12.0905L17.4231 7.0495C17.6925 6.86994 18.0525 6.91349 18.2712 7.1521C18.49 7.3907 18.5022 7.75314 18.3 8.00591L13.495 14.0121L19.9328 18.3039L22.2083 4.65058L6.32626 10.3228Z" fill="#666666"/>
  </svg>


  <svg id="gifts" width="78" height="80" viewBox="0 0 78 80" fill="none" xmlns="http://www.w3.org/2000/svg">
                <path d="M64.0156 34.7127H14.031C12.2766 34.7127 10.8494 33.2951 10.8494 31.5524V22.0842C10.8494 20.3415 12.2766 18.9233 14.031 18.9233H64.0149C65.7687 18.9233 67.1953 20.3415 67.1953 22.0842V31.553C67.1959 33.2951 65.7693 34.7127 64.0156 34.7127ZM14.031 21.3455C13.6276 21.3455 13.2869 21.684 13.2869 22.0842V31.553C13.2869 31.9599 13.6208 32.2912 14.031 32.2912H64.0149C64.4244 32.2912 64.7578 31.9599 64.7578 31.553V22.0842C64.7578 21.6834 64.4171 21.3455 64.0149 21.3455H14.031Z" fill="white"/>
                <path d="M57.0447 67.1488H20.999C17.6218 67.1488 14.8741 64.4191 14.8741 61.0626V33.5016C14.8741 32.8331 15.4201 32.2905 16.0929 32.2905C16.7656 32.2905 17.3116 32.8331 17.3116 33.5016V61.0626C17.3116 63.0833 18.9661 64.7267 20.999 64.7267H57.0447C59.077 64.7267 60.7308 63.0833 60.7308 61.0626V33.5016C60.7308 32.8331 61.2768 32.2905 61.9496 32.2905C62.6223 32.2905 63.1683 32.8331 63.1683 33.5016V61.0626C63.1683 64.4191 60.4213 67.1488 57.0447 67.1488Z" fill="white"/>
                <path d="M39.0225 67.1488C38.3498 67.1488 37.8038 66.6069 37.8038 65.9378V33.5016C37.8038 32.8331 38.3498 32.2905 39.0225 32.2905C39.6953 32.2905 40.2413 32.8331 40.2413 33.5016V65.9372C40.2413 66.6069 39.6959 67.1488 39.0225 67.1488Z" fill="white"/>
                <path d="M23.8113 21.3414C19.9966 19.2874 18.5731 14.5327 20.6383 10.7415C22.7022 6.95201 27.4864 5.53687 31.303 7.58721C37.117 10.7166 40.2565 19.4472 40.3869 19.8172L38.0877 20.6208C38.0585 20.5384 35.1256 12.3994 30.1433 9.71749C27.5078 8.30175 24.2062 9.27908 22.7821 11.8944C21.3567 14.5121 22.339 17.7941 24.9734 19.2117L23.8113 21.3414Z" fill="white"/>
                <path d="M54.2313 21.3413L53.071 19.2111C54.3477 18.5238 55.2782 17.3848 55.6926 16.0035C56.1063 14.6217 55.9534 13.1624 55.2617 11.895C54.5719 10.6264 53.4263 9.70233 52.0363 9.29117C50.6457 8.88001 49.1783 9.0314 47.9023 9.71747C42.9201 12.3988 39.9871 20.5378 39.9579 20.6202L37.6587 19.8166C37.7891 19.4466 40.928 10.716 46.7421 7.58719C48.5897 6.5929 50.7182 6.3737 52.7316 6.96955C54.7468 7.56479 56.4061 8.90484 57.4061 10.7414C58.4073 12.5774 58.6285 14.6913 58.0289 16.6939C57.4287 18.6958 56.0801 20.3458 54.2313 21.3413Z" fill="white"/>
                <path d="M61.9496 50.9314H16.0929C15.4201 50.9314 14.8741 50.3889 14.8741 49.7204C14.8741 49.0518 15.4201 48.5093 16.0929 48.5093H61.9496C62.6223 48.5093 63.1683 49.0518 63.1683 49.7204C63.1683 50.3889 62.6229 50.9314 61.9496 50.9314Z" fill="white"/>
  </svg>

  <svg id="cat-slim" width="50" height="53" viewBox="0 0 50 53" fill="none" xmlns="http://www.w3.org/2000/svg">
    <circle cx="25" cy="28" r="25" fill="#68B738"/>
    <g clip-path="url(#clip0_94_6)">
    <path d="M35.2034 0H35.008C34.6778 0.187081 34.415 0.473924 34.2571 0.819588C33.968 1.37738 33.7453 1.96735 33.5937 2.57732C33.5612 2.76073 33.4688 2.92811 33.331 3.05315C33.1932 3.17818 33.0179 3.25377 32.8326 3.26804C32.2658 3.36597 31.7288 3.59243 31.2626 3.93012C30.7965 4.26781 30.4135 4.7078 30.1429 5.21649C29.7708 5.87697 29.4526 6.5665 29.1914 7.27835C28.4611 9.17526 27.9006 11.134 27.2114 13.0464C26.8874 13.9175 26.872 13.9175 25.8949 13.9175C24.7274 13.9175 24.8097 13.7371 24.7943 15.0258C24.7943 15.433 24.9177 15.6392 25.3497 15.6186C25.4834 15.6186 25.684 15.5515 25.7354 15.7268C25.7869 15.9021 25.612 15.9794 25.5091 16.0825C24.8994 16.7029 24.1276 17.1388 23.2823 17.3402C22.3051 17.6031 21.3074 17.8093 20.356 18.1289C17.9131 18.9485 15.6554 20.0928 13.8966 22.0309C12.8681 23.2347 12.0445 24.6001 11.4589 26.0722C9.57143 30.5258 8.656 35.2165 7.94629 39.9536C7.612 42.1753 7.37543 44.4072 7.19543 46.6546C7.10286 47.7577 7 48.8763 7 50H24.1411C24.1696 49.7731 24.1283 49.5429 24.0229 49.3402C23.858 48.9289 23.5901 48.5672 23.2451 48.29C22.9 48.0128 22.4895 47.8295 22.0531 47.7577C21.6931 47.6753 21.652 47.567 21.8731 47.2835C22.2338 46.801 22.5103 46.2607 22.6909 45.6856C23.5291 43.2062 23.8531 40.6186 24.2594 38.0567C24.4889 36.0999 25.0894 34.2051 26.0286 32.4742C26.7611 31.2002 27.7382 30.0842 28.9034 29.1907C29.3303 28.866 29.3457 28.866 29.4177 29.4175C29.4691 29.7835 29.4794 30.1598 29.5051 30.5309C29.6595 32.9662 29.6285 35.4097 29.4126 37.8402C29.2184 39.7242 29.1926 41.6217 29.3354 43.5103C29.5399 45.7029 29.9304 47.8739 30.5029 50H37.3429C37.2536 49.442 36.9973 48.9243 36.6078 48.5156C36.2184 48.1069 35.7143 47.8264 35.1623 47.7113C34.5177 47.6087 33.8587 47.6438 33.2286 47.8144C32.92 47.8866 32.7914 47.8144 32.7657 47.4794C32.5529 44.7505 32.7261 42.0051 33.28 39.3247C33.966 36.2304 34.4912 33.1025 34.8537 29.9536C34.9887 28.6819 35.3881 27.4528 36.0263 26.3454C36.6383 25.2526 37.1731 24.1186 37.7749 23.0206C38.0138 22.6214 38.1575 22.1723 38.195 21.7083C38.2325 21.2443 38.1626 20.7779 37.9909 20.3454C37.852 19.9794 37.7183 19.6082 37.5486 19.2577C37.0343 18.2526 36.52 17.2577 36.0469 16.2423C35.7949 15.7268 35.8514 15.6649 36.412 15.6495C37.2503 15.6495 37.2503 15.6495 37.2657 14.8041C37.2657 14.6907 37.2657 14.5773 37.2657 14.4639C37.2657 14.1082 37.132 13.9124 36.7514 13.9485C36.4943 13.9485 36.2371 13.9485 35.9697 13.9485C35.6149 13.9485 35.512 13.799 35.5994 13.433C35.7729 12.838 36.1142 12.306 36.5823 11.9009C37.0503 11.4958 37.6252 11.2349 38.2377 11.1495C39.3772 11.0505 40.5251 11.1252 41.6423 11.3711C41.7712 11.4118 41.9109 11.4001 42.0312 11.3383C42.1515 11.2766 42.2427 11.1699 42.2851 11.0412C42.4909 10.5258 42.7171 10.0103 42.9486 9.49484C43.001 9.40339 43.0242 9.29801 43.015 9.19293C43.0058 9.08785 42.9647 8.98812 42.8971 8.90722C41.2514 6.81443 39.4669 4.86082 37.0343 3.60825C36.9168 3.55754 36.8138 3.47814 36.7347 3.3773C36.6557 3.27646 36.6031 3.15738 36.5817 3.03093C36.444 2.29408 36.225 1.57487 35.9286 0.886598C35.7895 0.519904 35.5349 0.20865 35.2034 0V0Z" fill="black"/>
    </g>
    <defs>
    <clipPath id="clip0_94_6">
    <rect width="36" height="50" fill="white" transform="translate(7)"/>
    </clipPath>
    </defs>
  </svg>

  <svg id="cat-pro" width="67" height="50" viewBox="0 0 67 50" fill="none" xmlns="http://www.w3.org/2000/svg">
    <circle cx="34" cy="25" r="25" fill="#68B738"/>
    <g clip-path="url(#clip0_95_1)">
    <path d="M61.5591 13.8784C62.1364 12.96 62.9036 12.1757 63.8091 11.5784C64.3091 11.2284 64.6091 11.2284 64.9091 11.8784C65.3091 12.8284 65.6591 13.8284 65.3591 14.8784C65.3045 15.0565 65.2942 15.2452 65.3291 15.4282C65.3639 15.6112 65.4429 15.7829 65.5591 15.9284C65.8591 16.3284 66.1091 16.7284 66.3591 17.0784C66.6994 17.5103 66.9201 18.0241 66.9991 18.5682C67.078 19.1123 67.0125 19.6676 66.8091 20.1784C66.6256 20.6743 66.5908 21.213 66.7091 21.7284C66.809 22.2234 66.809 22.7334 66.7091 23.2284C66.6687 23.5991 66.5187 23.9494 66.2782 24.2344C66.0377 24.5194 65.7177 24.7262 65.3591 24.8284C64.7196 24.9501 64.1488 25.3069 63.7591 25.8284C63.7119 25.9052 63.6457 25.9686 63.5669 26.0124C63.488 26.0562 63.3993 26.0789 63.3091 26.0784C62.7091 26.1784 61.2091 24.8284 61.2091 24.2284V23.9284C61.2591 22.1284 61.1591 21.9784 59.5091 21.2284C59.1638 21.1066 58.8544 20.9004 58.6091 20.6284C58.3091 20.2284 57.9091 20.2784 57.4591 20.4284C57.0091 20.5784 56.7591 20.8784 56.8091 21.3784C56.9599 22.5889 57.0101 23.8097 56.9591 25.0284C56.9624 25.1675 56.9966 25.3041 57.0591 25.4284C58.6091 27.6784 59.2091 30.3284 59.9591 32.8784C60.5591 34.8284 61.6591 35.8784 63.6591 36.0284C63.9792 36.054 64.2968 36.1041 64.6091 36.1784C65.02 36.2444 65.4017 36.4322 65.7048 36.7174C66.0078 37.0027 66.2183 37.3723 66.3091 37.7784C66.6591 38.8284 66.4591 39.0784 65.4091 39.0784H62.1591C61.7384 39.0997 61.3259 38.9562 61.0091 38.6784C60.5031 38.2514 59.9282 37.9132 59.3091 37.6784C58.6247 37.4258 58.0323 36.9728 57.6091 36.3784C57.0234 35.5602 56.3531 34.806 55.6091 34.1284C54.2091 32.6784 52.7091 31.2784 51.4091 29.7784C50.4195 28.7563 49.8486 27.4006 49.8091 25.9784C49.8091 25.5284 49.7091 25.3284 49.2091 25.5284C49.0594 25.6234 48.8864 25.6753 48.7091 25.6784C47.3091 25.6784 46.6091 26.5284 46.1091 27.7784C45.6591 28.8284 45.0591 29.8284 44.5091 30.8784C44.1972 31.5357 44.0269 32.2511 44.0091 32.9784C44.0091 34.1784 44.3091 34.5784 45.4091 34.9784C46.1091 35.2284 46.7591 35.4784 47.1091 36.1784C47.5091 36.9784 47.4091 37.1784 46.5591 37.2284H43.1591C42.9631 37.2478 42.7659 37.2052 42.5955 37.1065C42.425 37.0078 42.2899 36.8581 42.2091 36.6784L41.3091 35.1784C41.0438 34.7871 40.874 34.3389 40.8132 33.87C40.7524 33.4011 40.8024 32.9245 40.9591 32.4784C41.1755 31.6102 41.1926 30.7042 41.0091 29.8284C40.8831 29.2185 40.8939 28.5882 41.0409 27.9829C41.1879 27.3777 41.4674 26.8126 41.8591 26.3284C42.1591 25.9784 42.1591 25.8284 41.6591 25.7284C39.6146 25.2941 37.6325 24.6054 35.7591 23.6784C35.7459 23.6784 35.7331 23.6732 35.7238 23.6638C35.7144 23.6544 35.7091 23.6417 35.7091 23.6284C34.1091 23.0284 33.8091 23.1284 33.3591 24.7784C32.9591 26.1784 32.5591 27.5784 32.2591 29.0284C31.9091 30.6284 32.3091 32.1284 32.8091 33.6284C33.0091 34.2284 33.6091 34.1784 34.0591 34.3284C35.0591 34.6284 35.9091 35.0284 36.3091 36.0784C36.6591 36.8784 36.6091 36.9784 35.7591 36.9784C34.9091 36.9784 34.0591 36.9284 33.1591 36.9784C32.3997 36.9922 31.6584 36.7451 31.0591 36.2784C28.6591 34.6784 27.9591 32.2284 27.7591 29.5784C27.6591 27.9284 26.7591 26.6284 25.7091 25.3784C25.5091 25.1284 25.3091 25.0284 25.0091 25.2284C23.9359 25.8202 22.8153 26.3219 21.6591 26.7284C19.2462 27.5804 17.1289 29.1077 15.5591 31.1284C14.9729 31.8659 14.5933 32.746 14.4591 33.6784C14.3091 34.5784 14.5591 34.9784 15.4591 35.2284C16.3591 35.4784 16.8091 35.9784 16.9091 36.9284C16.9591 37.3284 16.8091 37.5284 16.4091 37.5284H12.3591C12.2266 37.519 12.0982 37.4778 11.9851 37.4081C11.8719 37.3385 11.7772 37.2425 11.7091 37.1284C11.081 36.3508 10.7449 35.3779 10.7591 34.3784C10.7329 32.6509 10.8837 30.9252 11.2091 29.2284C11.2759 28.7203 11.4656 28.2361 11.7618 27.8178C12.0581 27.3996 12.4519 27.06 12.9091 26.8284C15.8591 25.4284 17.4091 22.7784 18.8091 20.0284C19.1091 19.4784 18.8591 19.3784 18.3591 19.4284C16.9598 19.6227 15.634 20.1737 14.5091 21.0284C13.0362 22.1029 11.6487 23.2897 10.3591 24.5784C8.98394 25.9753 7.16046 26.8427 5.20911 27.0284C1.55911 27.2284 -0.140885 25.1784 0.00911497 21.8784C0.0426462 20.7532 0.466939 19.6748 1.20912 18.8284C1.46713 18.4939 1.81898 18.2439 2.21975 18.1103C2.62052 17.9767 3.05201 17.9656 3.45912 18.0784C4.20912 18.2784 4.40911 18.6784 4.10911 19.4284C3.95911 19.7284 3.75911 19.9784 3.60911 20.2784C3.39341 20.5849 3.22488 20.922 3.10911 21.2784C2.55911 22.7784 3.30911 23.8284 4.85911 23.9784C6.50911 24.1284 7.85912 23.4284 9.10912 22.4284C10.6151 21.2226 11.9595 19.8277 13.1091 18.2784C13.9687 17.1471 15.0512 16.2041 16.2895 15.5075C17.5279 14.8109 18.8959 14.3756 20.3091 14.2284C21.4591 14.0784 22.4591 13.5784 23.5591 13.2784C25.6164 12.6512 27.7586 12.3476 29.9091 12.3784C30.9052 12.4199 31.8974 12.2317 32.8091 11.8284C35.2591 10.8284 37.8091 10.8284 40.3591 11.3284C42.3591 11.7284 44.3591 12.2284 46.3091 12.7284C47.4696 12.9447 48.6629 12.9106 49.8091 12.6284C52.0034 12.0722 54.248 11.7372 56.5091 11.6284C57.9904 11.5564 59.4667 11.8482 60.8091 12.4784C61.8091 12.9284 61.8091 12.9284 61.5591 13.8784Z" fill="black"/>
    </g>
    <defs>
    <clipPath id="clip0_95_1">
    <rect width="67" height="28" fill="white" transform="translate(0 11)"/>
    </clipPath>
    </defs>
  </svg>

  <svg id="arrow-right" width="32" height="12" viewBox="0 0 32 12" fill="none" xmlns="http://www.w3.org/2000/svg">
    <line y1="6" x2="18" y2="6" stroke="black" stroke-width="2"/>
    <path d="M24 6L17.25 11.1962L17.25 0.803848L24 6Z" fill="black"/>
  </svg>

  <svg id="arrow-right-hover" width="32" height="12" viewBox="0 0 32 12" fill="none" xmlns="http://www.w3.org/2000/svg">
    <line y1="6" x2="26" y2="6" stroke="black" stroke-width="2"/>
    <path d="M32 6L25.25 11.1962L25.25 0.803848L32 6Z" fill="black"/>
  </svg>

  <svg id="icon-leaf" width="31" height="32" viewBox="0 0 31 32" fill="none" xmlns="http://www.w3.org/2000/svg">
    <g clip-path="url(#clip0_130_911)">
    <path d="M28.3438 2.767C28.2434 2.317 27.8647 2 27.4325 2C27.4306 2 27.4288 2 27.4269 2C22.4891 2.033 10.4816 2.916 5.63375 10.38C3.11562 14.258 2.89906 19.293 4.98969 25.345C5.00562 25.392 5.03844 25.424 5.06 25.467C4.31281 27.44 4.02312 28.753 4.01562 28.79C3.90687 29.33 4.23031 29.862 4.73656 29.978C4.80219 29.993 4.86781 30 4.93344 30C5.36562 30 5.75469 29.679 5.84937 29.21C5.86906 29.108 8.25781 18.837 16.7028 12.832C17.1341 12.526 17.2503 11.905 16.9625 11.445C16.6747 10.985 16.0934 10.86 15.6622 11.168C10.8734 14.573 7.92406 19.176 6.18969 22.824C4.94844 18.246 5.27375 14.447 7.17594 11.519C10.9194 5.755 19.7984 4.365 25.1581 4.071C24.005 5.872 22.745 9.174 22.745 15C22.745 18.12 21.9153 20.522 20.2803 22.14C17.6591 24.731 13.4009 24.974 10.2866 24.724C9.76906 24.679 9.32 25.095 9.28062 25.646C9.24125 26.196 9.62844 26.676 10.1441 26.718C10.7675 26.769 11.4331 26.8 12.125 26.8C15.2956 26.8 18.9941 26.137 21.5544 23.606C23.5888 21.595 24.62 18.7 24.62 15.001C24.62 5.902 27.8356 3.905 27.8516 3.896C28.2416 3.687 28.4459 3.219 28.3438 2.767Z" fill="white"/>
    </g>
    <defs>
    <clipPath id="clip0_130_911">
    <rect width="30" height="32" fill="white" transform="translate(0.5)"/>
    </clipPath>
    </defs>
  </svg>

  <svg id="icon-tub" width="26" height="29" viewBox="0 0 26 29" fill="none" xmlns="http://www.w3.org/2000/svg">
    <path d="M10.875 0C9.24375 0 7.975 1.35937 7.975 3.08125C7.975 4.80312 9.24375 6.1625 10.875 6.1625C12.5063 6.1625 13.775 4.80312 13.775 3.08125C13.775 1.35937 12.5063 0 10.875 0ZM10.875 1.17812C11.8719 1.17812 12.5969 2.02094 12.5969 3.08125C12.5969 4.07812 11.8084 4.98438 10.875 4.98438C9.87813 4.98438 9.15313 4.14156 9.15313 3.08125C9.15313 2.08437 9.9325 1.17812 10.875 1.17812ZM0 24.7406C0 25.9188 0.407813 26.9156 1.35938 27.7313C2.35625 28.5831 3.53438 28.5106 3.53438 28.5106H22.5656C23.345 28.5106 24.3781 28.13 25.1937 27.0606C26.0366 26.0638 25.9822 24.7044 25.9822 24.7044V7.48563C25.9822 7.05063 25.8734 6.8875 25.2391 6.8875C24.6047 6.8875 24.5503 7.15938 24.5503 7.47656V24.6953C24.5322 24.9944 24.4778 25.7828 23.8072 26.4172C23.0731 27.0425 22.3572 26.9609 22.3572 26.9609C22.3572 26.9609 4.23219 26.9609 3.32594 26.9338C2.98156 26.8703 2.41969 26.7434 1.87594 26.0275C1.36844 25.3025 1.46812 24.3962 1.46812 24.3962V7.1775C1.46812 6.71531 1.2325 6.54313 0.743125 6.54313C0.25375 6.54313 0 6.71531 0 7.12313V24.7406ZM16.3125 8.42813C15.225 8.66375 14.1375 8.80875 12.0531 10.7844C9.96875 12.7781 8.42813 12.6875 6.8875 12.5969C5.34688 12.5063 3.71563 11.0563 3.44375 10.6938C3.10844 10.3403 2.5375 10.5759 2.35625 10.8116C2.20219 11.0472 2.20219 11.455 2.465 11.8084C3.73375 12.9866 4.91188 13.8928 7.1775 14.0741C9.44312 14.2916 11.6181 13.2675 13.0681 11.8084C14.5181 10.3584 15.2431 10.0866 16.3306 9.90531C18.9587 9.48844 20.4994 10.5216 21.4056 11.1741C22.4025 12.2616 22.6744 11.9534 22.9462 11.6453C23.49 10.9294 22.7197 10.3766 21.8588 9.74219C20.0463 8.56406 18.3244 8.11094 16.3306 8.47344L16.3125 8.42813ZM7.25 15.5875C6.07188 15.5875 5.16562 16.5844 5.16562 17.8531C5.16562 19.1219 6.07188 20.1188 7.25 20.1188C8.42813 20.1188 9.33438 19.1219 9.33438 17.8531C9.33438 16.5844 8.42813 15.5875 7.25 15.5875ZM19.0312 16.3669C17.4906 16.3669 16.2219 17.7262 16.2219 19.3575C16.2219 20.9888 17.4906 22.3481 19.0312 22.3481C20.5719 22.3481 21.8406 20.9888 21.8406 19.3575C21.8406 17.7262 20.5719 16.3669 19.0312 16.3669ZM19.0312 17.8169C19.8288 17.8169 20.4813 18.5147 20.4813 19.3575C20.4813 20.2184 19.8288 20.8981 19.0312 20.8981C18.2337 20.8981 17.5812 20.2003 17.5812 19.3575C17.5812 18.4966 18.2337 17.8169 19.0312 17.8169Z" fill="white"/>
  </svg>

  <svg id="icon-eat" width="40" height="40" viewBox="0 0 40 40" fill="none" xmlns="http://www.w3.org/2000/svg">
    <rect x="1" y="1" width="38" height="38" rx="19" fill="white"/>
    <path d="M16 11L8 20L16 29V11Z" fill="#666666"/>
    <path d="M32 20L24 11V29L32 20Z" fill="#666666"/>
    <rect x="1" y="1" width="38" height="38" rx="19" stroke="#666666" stroke-width="2"/>
</svg>

  <svg id="icon-alarm" width="26" height="31" viewBox="0 0 26 31" fill="none" xmlns="http://www.w3.org/2000/svg">
    <path d="M5.53799 0C4.47504 0 4.47504 1.5831 5.53799 1.5831H12.1815V3.18731C5.37855 3.62002 0 9.41417 0 16.4854C0 20.4959 1.74325 24.1159 4.4963 26.5539C4.97463 26.976 5.03841 27.7254 4.60259 28.1897L3.07194 29.7412C2.32787 30.4272 3.43334 31.4931 4.10301 30.7438L6.10136 28.7069C6.45214 28.3692 6.97298 28.2847 7.4088 28.4958C9.12736 29.3397 11.0169 29.784 12.9341 29.795C14.8513 29.8059 16.7459 29.3833 18.4742 28.5591C18.8993 28.348 19.4308 28.4325 19.771 28.7702L21.7055 30.7438C22.3858 31.377 23.3638 30.4272 22.7472 29.7412L21.3016 28.2636C20.8552 27.8098 20.919 27.0605 21.4079 26.6277C22.8584 25.3585 24.0186 23.7959 24.8106 22.0447C25.6026 20.2936 26.0081 18.3944 25.9999 16.4748C25.9999 9.40362 20.5894 3.59891 13.7759 3.18731V1.5831H20.4194C21.4823 1.5831 21.4823 0 20.4194 0H5.53799ZM1.43499 16.4748C1.43499 9.94187 6.61158 4.65431 12.9999 4.65431C19.3777 4.65431 24.5543 9.94187 24.5543 16.4748C24.5543 23.0183 19.3777 28.3164 12.9999 28.3164C6.62221 28.3164 1.43499 23.0183 1.43499 16.4748ZM12.1921 8.37988C12.1921 7.28226 13.8503 7.28226 13.8503 8.37988V17.0131C13.8503 17.237 13.7607 17.4517 13.6012 17.6101C13.4418 17.7684 13.2255 17.8574 12.9999 17.8574C12.7875 17.8574 12.5836 17.7743 12.4324 17.6262C12.2812 17.478 12.1949 17.2767 12.1921 17.0658V8.37988ZM7.21746 10.9973C7.52475 10.9973 7.81945 10.8761 8.03673 10.6603C8.25402 10.4446 8.37608 10.152 8.37608 9.84688C8.37608 9.54178 8.25402 9.24918 8.03673 9.03344C7.81945 8.8177 7.52475 8.6965 7.21746 8.6965C6.93069 8.72386 6.66447 8.85633 6.47075 9.06805C6.27702 9.27977 6.16969 9.55556 6.16969 9.84161C6.16969 10.1277 6.27702 10.4034 6.47075 10.6152C6.66447 10.8269 6.93069 10.9593 7.21746 10.9867V10.9973ZM18.7718 10.9973C19.0791 10.9973 19.3738 10.8761 19.5911 10.6603C19.8083 10.4446 19.9304 10.152 19.9304 9.84688C19.9304 9.54178 19.8083 9.24918 19.5911 9.03344C19.3738 8.8177 19.0791 8.6965 18.7718 8.6965C18.485 8.72386 18.2188 8.85633 18.0251 9.06805C17.8313 9.27977 17.724 9.55556 17.724 9.84161C17.724 10.1277 17.8313 10.4034 18.0251 10.6152C18.2188 10.8269 18.485 10.9593 18.7718 10.9867V10.9973ZM8.37608 23.5882C8.37608 25.1185 6.05884 25.1185 6.05884 23.5882C6.05884 22.0579 8.37608 22.0579 8.37608 23.5882ZM12.9999 27.0288C13.1607 27.0441 13.3229 27.0259 13.4762 26.9754C13.6294 26.9248 13.7703 26.843 13.8899 26.7352C14.0094 26.6273 14.1049 26.4959 14.1703 26.3493C14.2356 26.2026 14.2694 26.044 14.2694 25.8837C14.2694 25.7233 14.2356 25.5648 14.1703 25.4181C14.1049 25.2715 14.0094 25.14 13.8899 25.0322C13.7703 24.9244 13.6294 24.8426 13.4762 24.792C13.3229 24.7414 13.1607 24.7232 12.9999 24.7386C12.7132 24.7659 12.4469 24.8984 12.2532 25.1101C12.0595 25.3219 11.9522 25.5976 11.9522 25.8837C11.9522 26.1697 12.0595 26.4455 12.2532 26.6572C12.4469 26.869 12.7132 27.0014 12.9999 27.0288ZM4.91085 16.6437C4.9263 16.8033 4.90797 16.9643 4.85704 17.1165C4.80611 17.2687 4.72371 17.4086 4.61511 17.5273C4.50651 17.646 4.37413 17.7408 4.22644 17.8057C4.07876 17.8706 3.91904 17.9041 3.75755 17.9041C3.59605 17.9041 3.43633 17.8706 3.28865 17.8057C3.14097 17.7408 3.00858 17.646 2.89998 17.5273C2.79138 17.4086 2.70898 17.2687 2.65805 17.1165C2.60712 16.9643 2.58879 16.8033 2.60424 16.6437C2.6318 16.3589 2.76522 16.0946 2.97845 15.9023C3.19169 15.7099 3.46945 15.6033 3.75755 15.6033C4.04564 15.6033 4.3234 15.7099 4.53664 15.9023C4.74987 16.0946 4.88329 16.3589 4.91085 16.6437ZM22.237 17.794C22.3978 17.8094 22.56 17.7912 22.7132 17.7406C22.8665 17.6901 23.0074 17.6082 23.127 17.5004C23.2465 17.3926 23.342 17.2611 23.4074 17.1145C23.4727 16.9679 23.5065 16.8093 23.5065 16.6489C23.5065 16.4886 23.4727 16.33 23.4074 16.1834C23.342 16.0367 23.2465 15.9053 23.127 15.7975C23.0074 15.6896 22.8665 15.6078 22.7132 15.5573C22.56 15.5067 22.3978 15.4885 22.237 15.5038C21.9502 15.5312 21.684 15.6637 21.4903 15.8754C21.2966 16.0871 21.1892 16.3629 21.1892 16.6489C21.1892 16.935 21.2966 17.2108 21.4903 17.4225C21.684 17.6342 21.9502 17.7667 22.237 17.794ZM19.9304 23.5987C19.9304 25.1185 17.6132 25.1185 17.6132 23.5882C17.6132 22.0579 19.9304 22.0579 19.9304 23.5882V23.5987Z" fill="white"/>
</svg>

  <svg id="button-arrows" width="24" height="18" viewBox="0 0 24 18" fill="none" xmlns="http://www.w3.org/2000/svg">
    <path d="M8 0L0 9L8 18V0Z" fill="#666666"/>
    <path d="M24 9L16 0V18L24 9Z" fill="#666666"/>
</svg>

  <svg id="thumb" width="40" height="40" viewBox="0 0 40 40" fill="none" xmlns="http://www.w3.org/2000/svg">
    <rect x="1" y="1" width="38" height="38" rx="19" fill="white"/>
    <path d="M16 11L8 20L16 29V11Z" fill="#666666"/>
    <path d="M32 20L24 11V29L32 20Z" fill="#666666"/>
    <rect x="1" y="1" width="38" height="38" rx="19" stroke="#666666" stroke-width="2"/>
  </svg>

  <svg id="icon-email" width="20" height="20" viewBox="0 0 20 20" fill="none" xmlns="http://www.w3.org/2000/svg">
    <path d="M1.5 8.5V16.5H18.5V8.5M1.5 3.5H18.5V5.5L10 11.5L1.5 5.5V3.5Z" stroke="black" stroke-linecap="round" stroke-linejoin="round"/>
  </svg>

  <svg id="logo-2" width="101" height="18" viewBox="0 0 101 18" fill="none" xmlns="http://www.w3.org/2000/svg">
    <g clip-path="url(#clip0_37030_445)">
    <path d="M1.26449 16.5385C0.36955 15.2762 -0.0747041 13.7627 1.02073e-05 12.2308V5.84615C-0.108365 4.29774 0.308071 2.75746 1.18546 1.46154C2.05478 0.461538 3.39829 0 5.37403 0C7.34978 0 8.61425 0.461538 9.40455 1.30769C10.2626 2.37941 10.6846 3.72136 10.59 5.07692V6.61539H6.71754V4.84615C6.74881 4.32289 6.66808 3.799 6.48045 3.30769C6.38016 3.10938 6.2212 2.9448 6.02403 2.83513C5.82686 2.72547 5.60049 2.67572 5.37403 2.69231C4.82082 2.69231 4.42568 2.84615 4.26762 3.23077C4.08883 3.77733 4.00862 4.34988 4.03053 4.92308V13.1538C3.98879 13.71 4.0978 14.267 4.34665 14.7692C4.5047 15.1538 4.89985 15.3077 5.45306 15.3077C6.00627 15.3077 6.32239 15.1538 6.48045 14.7692C6.66013 14.2494 6.74049 13.7019 6.71754 13.1538V11.3077H10.59V12.8462C10.6704 14.2238 10.2508 15.5852 9.40455 16.6923C8.61425 17.6154 7.27075 18.0769 5.37403 18.0769C3.47732 18 2.05478 17.5385 1.26449 16.5385Z" fill="#111111"/>
    <path d="M15.2527 0.23077H19.7574L23.0767 17.7692H19.4413L18.8091 14.0769H16.2011L15.5689 17.7692H11.8545L15.2527 0.23077ZM18.493 11.7692L17.5446 4.92308L16.5962 11.7692H18.493Z" fill="#111111"/>
    <path d="M25.8427 3.15385H23.1557V0.23077H32.5602V3.07692H29.8732V17.7692H25.8427V3.15385Z" fill="#111111"/>
    <path d="M39.7519 0.23077H46.7066V2.07692H42.2019V7.84615H45.8372V9.61539H42.2019V16.0769H46.7066V17.8462H39.6729V0.23077H39.7519Z" fill="#111111"/>
    <path d="M48.7613 0.23077H50.5L55.6369 11.8462V0.23077H57.6917V17.7692H56.1111L50.8951 5.76923V17.7692H48.7613V0.23077Z" fill="#111111"/>
    <path d="M60.0626 0.23077H67.0172V2.07692H62.5125V7.84615H66.1479V9.61539H62.5125V16.0769H67.0172V17.8462H60.0626V0.23077Z" fill="#111111"/>
    <path d="M69.072 0.23077H72.7074C74.1375 0.134618 75.5587 0.514353 76.7379 1.30769C77.6072 2 78.0024 3.23077 78.0024 4.84616C78.0024 7.07692 77.2911 8.46154 75.7895 8.92308L78.3185 17.6923H75.8686L73.4977 9.46154H71.5219V17.6923H68.993V0.23077H69.072ZM72.5493 7.76923C73.364 7.83458 74.1761 7.61652 74.8412 7.15385C75.3154 6.76923 75.5524 6 75.5524 4.84616C75.5743 4.27296 75.4941 3.7004 75.3154 3.15385C75.1375 2.76166 74.832 2.4373 74.446 2.23077C73.9017 1.98934 73.3042 1.8836 72.7074 1.92308H71.601V7.69231H72.5493V7.76923Z" fill="#111111"/>
    <path d="M81.1635 16.4615C80.342 15.1166 79.9564 13.5617 80.0571 12V6.15384C80.0376 5.0391 80.1705 3.92679 80.4522 2.84615C80.7167 2.03863 81.2437 1.33668 81.9538 0.84615C82.8362 0.337746 83.8542 0.0967275 84.8779 0.153842C86.5375 0.153842 87.723 0.538458 88.4342 1.38461C89.2524 2.50191 89.6438 3.86237 89.5407 5.23077V5.84615H87.1698V5.30769C87.1733 4.66346 87.1205 4.0201 87.0117 3.38461C86.9451 2.98303 86.7177 2.62348 86.3795 2.38461C85.9353 2.10082 85.4081 1.96578 84.8779 2C84.3112 1.96465 83.7504 2.12843 83.2973 2.46154C83.1114 2.61401 82.9595 2.80181 82.8507 3.01344C82.742 3.22507 82.6788 3.45608 82.6651 3.6923C82.5609 4.37999 82.5081 5.07411 82.507 5.76923V12.3077C82.4488 13.3038 82.6104 14.3006 82.9812 15.2308C83.2973 15.8462 83.9295 16.0769 84.8779 16.0769C85.2523 16.1223 85.6322 16.0589 85.9697 15.8947C86.3072 15.7304 86.5873 15.4727 86.7746 15.1538C87.1922 14.1811 87.3812 13.1299 87.3278 12.0769V10.8462H85.036V9.07692H89.6197V17.7692H88.0391L87.802 15.7692C87.5948 16.4395 87.1634 17.0231 86.5763 17.4273C85.9892 17.8315 85.2801 18.0331 84.5618 18C83.9088 18.0374 83.2564 17.9164 82.6633 17.6479C82.0702 17.3794 81.5548 16.9717 81.1635 16.4615Z" fill="#111111"/>
    <path d="M94.6776 11.6154L90.8052 0.307692H93.1761L95.9421 8.76923L98.6291 0.307692H101L97.1276 11.6154V17.7692H94.7567V11.6154H94.6776Z" fill="#111111"/>
    </g>
    <defs>
    <clipPath id="clip0_37030_445">
    <rect width="101" height="18" fill="white"/>
    </clipPath>
    </defs>

  </svg>

  <svg id="footer-logo" width="129" height="24" viewBox="0 0 129 24" fill="none" xmlns="http://www.w3.org/2000/svg">
    <g clip-path="url(#clip0_83854_433)">
    <path d="M2.1025 22.0513C0.968327 20.3682 0.405312 18.3503 0.5 16.3077V7.79487C0.362652 5.73031 0.890413 3.67661 2.00235 1.94872C3.10407 0.615385 4.80673 0 7.31064 0C9.81455 0 11.4171 0.615385 12.4186 1.74359C13.506 3.17255 14.0409 4.96181 13.921 6.76923V8.82051H9.0133V6.46154C9.05294 5.76385 8.95062 5.06533 8.71283 4.41026C8.58573 4.14583 8.38428 3.9264 8.1344 3.78018C7.88452 3.63395 7.59763 3.56763 7.31064 3.58974C6.60955 3.58974 6.10876 3.79487 5.90845 4.30769C5.68187 5.03643 5.58022 5.79984 5.60798 6.5641V17.5385C5.55509 18.2799 5.69324 19.0227 6.00861 19.6923C6.20892 20.2051 6.7097 20.4103 7.4108 20.4103C8.11189 20.4103 8.51252 20.2051 8.71283 19.6923C8.94055 18.9992 9.04239 18.2692 9.0133 17.5385V15.0769H13.921V17.1282C14.0228 18.9651 13.4911 20.7803 12.4186 22.2564C11.4171 23.4872 9.7144 24.1026 7.31064 24.1026C4.90689 24 3.10407 23.3846 2.1025 22.0513Z" fill="#111111"/>
    <path d="M19.8302 0.307617H25.5391L29.7457 23.6922H25.1385L24.3372 18.7692H21.032L20.2308 23.6922H15.5234L19.8302 0.307617ZM23.9366 15.6922L22.7347 6.56403L21.5328 15.6922H23.9366Z" fill="#111111"/>
    <path d="M33.2511 4.20505H29.8458V0.307617H41.7645V4.10249H38.3591V23.6922H33.2511V4.20505Z" fill="#111111"/>
    <path d="M50.8787 0.307617H59.6925V2.76916H53.9836V10.4615H58.5908V12.8204H53.9836V21.4358H59.6925V23.7948H50.7786V0.307617H50.8787Z" fill="#111111"/>
    <path d="M62.2965 0.307617H64.5L71.0101 15.7948V0.307617H73.6142V23.6922H71.6111L65.0007 7.69223V23.6922H62.2965V0.307617Z" fill="#111111"/>
    <path d="M76.6189 0.307617H85.4327V2.76916H79.7237V10.4615H84.3309V12.8204H79.7237V21.4358H85.4327V23.7948H76.6189V0.307617Z" fill="#111111"/>
    <path d="M88.0367 0.3076H92.6439C94.4563 0.179397 96.2574 0.685711 97.7519 1.7435C98.8536 2.66657 99.3544 4.3076 99.3544 6.46145C99.3544 9.4358 98.453 11.282 96.55 11.8973L99.755 23.5897H96.6501L93.6454 12.6153H91.1415V23.5897H87.9365V0.3076H88.0367ZM92.4436 10.3589C93.4761 10.446 94.5053 10.1553 95.3481 9.53837C95.949 9.02555 96.2495 7.99991 96.2495 6.46145C96.2773 5.69719 96.1756 4.93378 95.949 4.20504C95.7236 3.68211 95.3365 3.24964 94.8473 2.97427C94.1575 2.65236 93.4002 2.51137 92.6439 2.56401H91.2417V10.2563H92.4436V10.3589Z" fill="#111111"/>
    <path d="M103.361 21.9487C102.32 20.1554 101.831 18.0821 101.958 15.9999V8.20507C101.934 6.71875 102.102 5.23567 102.459 3.79481C102.794 2.71811 103.462 1.78218 104.362 1.12815C105.481 0.450275 106.771 0.128917 108.068 0.20507C110.171 0.20507 111.674 0.71789 112.575 1.8461C113.612 3.33582 114.108 5.14977 113.977 6.9743V7.79481H110.973V7.07687C110.977 6.21789 110.91 5.36008 110.772 4.51276C110.688 3.97732 110.4 3.49792 109.971 3.17943C109.408 2.80104 108.74 2.62099 108.068 2.66661C107.35 2.61949 106.639 2.83785 106.065 3.28199C105.829 3.48529 105.637 3.73569 105.499 4.01787C105.361 4.30004 105.281 4.60805 105.264 4.92302C105.132 5.83993 105.065 6.76543 105.063 7.69225V16.4102C104.99 17.7384 105.194 19.0674 105.664 20.3076C106.065 21.1281 106.866 21.4358 108.068 21.4358C108.543 21.4964 109.024 21.4119 109.452 21.1929C109.879 20.9739 110.234 20.6302 110.472 20.2051C111.001 18.9081 111.241 17.5064 111.173 16.1025V14.4615H108.268V12.1025H114.077V23.6923H112.074L111.774 21.0256C111.511 21.9193 110.964 22.6975 110.22 23.2364C109.476 23.7753 108.578 24.0441 107.667 23.9999C106.84 24.0498 106.013 23.8885 105.261 23.5304C104.51 23.1724 103.857 22.6289 103.361 21.9487Z" fill="#111111"/>
    <path d="M120.488 15.4871L115.58 0.410156H118.585L122.09 11.6922L125.495 0.410156H128.5L123.592 15.4871V23.6922H120.588V15.4871H120.488Z" fill="#111111"/>
    </g>
    <defs>
    <clipPath id="clip0_83854_433">
    <rect width="128" height="24" fill="white" transform="translate(0.5)"/>
    </clipPath>
    </defs>
  </svg>

  <svg id="html-academy" width="27" height="34" viewBox="0 0 27 34" fill="none" xmlns="http://www.w3.org/2000/svg">
    <path d="M13.6426 0.0157537L13.5 0L0 1.40733V26.0129L13.5 34L27 26.0129V1.40733L13.6426 0.0157537ZM25.2344 25.0151L13.5 31.9573L1.76561 25.0151V14.9293L13.4507 21.8451L13.4701 23.0984L5.45351 18.3548L5.44295 19.5801L13.4894 24.3885L13.5088 25.675L5.46408 20.9174L5.45351 22.1427L13.5 26.9511L21.6239 22.1182V20.8929V16.909L25.2432 14.7595L25.2344 25.0151ZM25.2344 13.4519L22.0147 15.3319L20.5325 16.2071L13.4666 12.0201L13.456 13.2454L19.4957 16.818L19.4429 16.8495L19.3126 16.9247L18.4536 17.4166L13.4666 14.4689L13.456 15.6942L17.3921 18.0222L16.4591 18.6314L16.438 18.6436L13.4666 16.902L13.456 18.1273L15.4029 19.2615L13.4155 20.4483L1.7973 13.5762L13.4349 6.61831L25.2344 13.4519ZM25.2344 12.2266L13.4401 5.31075L1.76561 12.2196V2.9897L13.5 1.76442L25.2344 2.9897V12.2266Z" fill="#666666"/>
  </svg>

</svg>
